<svg xmlns="http://www.w3.org/2000/svg" width="1024" height="1024" viewBox="0 0 1024 1024">
<defs>
  <linearGradient id="bg" x1="0" y1="0" x2="1" y2="1"><stop offset="0" stop-color="#173a78"/><stop offset="0.55" stop-color="#071b39"/><stop offset="1" stop-color="#020b19"/></linearGradient>
  <linearGradient id="gold" x1="0" y1="0" x2="1" y2="1"><stop offset="0" stop-color="#fff2a6"/><stop offset="0.28" stop-color="#ffd65a"/><stop offset="0.7" stop-color="#d89400"/><stop offset="1" stop-color="#fff0a0"/></linearGradient>
  <filter id="shadow" x="-30%" y="-30%" width="160%" height="160%"><feDropShadow dx="0" dy="14" stdDeviation="10" flood-color="#000" flood-opacity="0.55"/></filter>
</defs>
<rect x="22" y="22" width="980" height="980" rx="176" fill="url(#bg)" stroke="url(#gold)" stroke-width="28"/>
<g fill="url(#gold)" stroke="#9c6300" stroke-width="4" filter="url(#shadow)">
  <path d="M248 447 L512 191 L776 447 L740 483 L512 263 L284 483 Z"/>
  <path d="M365 420 L512 282 L659 420 V617 H365 Z"/>
  <path d="M620 233 H695 V366 L620 294 Z"/>
  <rect x="454" y="446" width="48" height="48" rx="4"/>
  <rect x="522" y="446" width="48" height="48" rx="4"/>
  <rect x="454" y="514" width="48" height="48" rx="4"/>
  <rect x="522" y="514" width="48" height="48" rx="4"/>
  <path d="M123 675 Q512 580 901 675 Q512 620 123 675 Z"/>
</g>
<text x="512" y="797" text-anchor="middle" font-family="-apple-system,BlinkMacSystemFont,'Hiragino Sans','Yu Gothic',Meiryo,sans-serif" font-size="132" font-weight="900" fill="url(#gold)" stroke="#8a5600" stroke-width="3" paint-order="stroke">開発室</text>
<line x1="152" y1="874" x2="318" y2="874" stroke="url(#gold)" stroke-width="8"/>
<line x1="706" y1="874" x2="872" y2="874" stroke="url(#gold)" stroke-width="8"/>
<text x="512" y="895" text-anchor="middle" font-family="Arial,sans-serif" font-size="47" font-weight="700" letter-spacing="3" fill="url(#gold)">FUJIWARA Group</text>
</svg>